<svg width="624" height="474" fill="none" xmlns="http://www.w3.org/2000/svg"><path d="M764.645 292.62L255.528 801.737c-1.664-1.536-3.303-3.174-4.903-4.774-1.6-1.6-3.251-3.251-4.786-4.915L754.956 282.93c1.664 1.536 3.315 3.187 4.915 4.787s3.238 3.239 4.774 4.903zm-22.655-21.683L233.897 779.03c-3.046-3.431-5.926-6.925-8.882-10.471l506.491-506.491c3.558 2.944 7.04 5.811 10.471 8.882m-24.604-19.708L214.201 754.414c-2.752-3.725-5.452-7.527-7.96-11.393l499.752-499.752c3.853 2.521 7.655 5.221 11.393 7.96m-26.653-17.685l-494.23 494.23a248.998 248.998 0 01-7.037-12.316l488.951-488.951c4.161 2.213 8.27 4.581 12.316 7.037zm-28.792-15.545L180.945 698.995c-2.085-4.417-4.157-8.822-6.063-13.29l473.757-473.756c4.468 1.905 8.885 3.965 13.289 6.063m-31.099-13.239L167.731 667.87a273.828 273.828 0 01-4.949-14.404l453.655-453.655a271.387 271.387 0 0114.404 4.949m-33.84-10.625l-439.92 439.92c-1.394-5.211-2.57-10.41-3.668-15.685l427.903-427.903c5.275 1.099 10.474 2.274 15.685 3.668zm-36.748-7.59L267.694 479.104 149.517 597.28c-.855-5.749-1.646-11.46-2.207-17.146l395.784-395.783c5.698.548 11.396 1.352 17.146 2.207m-40.426-3.912L145.606 556.855a340.39 340.39 0 01-.183-19.17l355.221-355.222a342.282 342.282 0 0119.17.183zm-45.461 1.123L146.728 511.393c.605-7.338 1.531-14.637 2.572-21.924l303.115-303.116c7.287-1.04 14.587-1.966 21.938-2.584zm-53.007 8.67L155.321 458.465c2.168-9.132 4.683-18.02 7.555-26.909L394.45 199.982c8.902-2.886 17.842-5.451 26.909-7.555m-68.022 23.683L179.006 390.441a349.288 349.288 0 0123.916-43.27l107.146-107.145a348.446 348.446 0 0143.269-23.916z" fill="#F08151"/></svg>