<svg width="192" height="218" fill="none" xmlns="http://www.w3.org/2000/svg"><path d="M27.65 390.432L-147.083 87.785a83.763 83.763 0 012.854-1.699 84.152 84.152 0 012.905-1.626L33.41 387.106c-.93.588-1.911 1.154-2.862 1.703-.951.549-1.925 1.112-2.898 1.623zm13.011-7.898L-133.721 80.496c1.991-.997 3.992-1.908 6.025-2.849L46.136 378.733c-1.827 1.298-3.608 2.571-5.48 3.793m12.331-9.059L-119.706 74.354c2.093-.822 4.214-1.61 6.342-2.3L58.155 369.133c-1.666 1.49-3.41 2.933-5.163 4.342m11.639-10.274L-104.993 69.404c2.206-.644 4.43-1.238 6.658-1.753l167.813 290.66a121.683 121.683 0 01-4.847 4.89zm10.905-11.546L-89.545 65.725c2.332-.423 4.657-.841 6.992-1.173L80.044 346.178c-1.455 1.856-2.975 3.668-4.512 5.469m10.113-12.917L-73.293 63.44a131.39 131.39 0 017.375-.51L89.78 332.605a132.38 132.38 0 01-4.13 6.132m9.233-14.53L-56.102 62.694c2.618.002 5.203.104 7.815.251l146.86 254.369c-1.178 2.335-2.382 4.625-3.69 6.893zm8.174-16.276L2.649 134.019l-40.56-70.25c2.803.32 5.58.667 8.316 1.118l135.836 235.276c-.972 2.602-2.065 5.173-3.188 7.761m6.912-18.461L-18.467 67.013c3.014.687 6.042 1.467 9.011 2.322l121.915 211.163a165.998 165.998 0 01-2.494 8.965zm5.185-21.455L2.706 73.25c3.364 1.206 6.67 2.557 9.956 3.96l104.032 180.188c-.428 3.547-.911 7.086-1.544 10.61zm2.594-25.94L26.442 83.928a170.102 170.102 0 0111.666 6.922l79.478 137.66c.235 4.536.315 9.05.162 13.565m-2.559-34.866L55.358 103.577a169.555 169.555 0 0117.281 16.648l36.773 63.694a168.932 168.932 0 015.777 23.29z" fill="#A22C38"/></svg>