<svg width="227" height="195" fill="none" xmlns="http://www.w3.org/2000/svg"><g clip-path="url(#clip0_210_7637)" fill="#0A7BC0"><path d="M162.351 411.852l174.733-302.647c-.929-.587-1.903-1.149-2.854-1.698-.951-.549-1.933-1.116-2.906-1.627L156.591 408.527a84.17 84.17 0 002.861 1.703c.952.549 1.925 1.111 2.899 1.622zm-13.012-7.898l174.382-302.037c-1.991-.997-3.991-1.908-6.025-2.85L143.864 400.154c1.827 1.299 3.609 2.571 5.48 3.794m-12.331-9.06L309.706 95.775c-2.092-.822-4.214-1.61-6.342-2.3L131.845 390.553c1.666 1.49 3.41 2.933 5.163 4.341m-11.639-10.273L294.993 90.824a121.12 121.12 0 00-6.658-1.752L120.523 379.731a120.752 120.752 0 004.846 4.89zm-10.905-11.546l165.082-285.93c-2.333-.422-4.658-.84-6.993-1.172L109.956 367.599c1.455 1.855 2.976 3.668 4.512 5.469m-10.113-12.917l158.939-275.29c-2.439-.24-4.909-.407-7.375-.511L100.221 354.027a131.8 131.8 0 004.129 6.131m-9.232-14.53L246.102 84.115c-2.618.001-5.203.103-7.815.25l-146.86 254.37c1.178 2.335 2.383 4.624 3.69 6.893zm-8.175-16.276l100.409-173.913 40.559-70.25c-2.803.321-5.58.668-8.316 1.12L83.759 321.582c.973 2.603 2.065 5.173 3.189 7.761m-6.913-18.46l128.432-222.45a165.814 165.814 0 00-9.011 2.323L77.541 301.919a165.964 165.964 0 002.494 8.964zm-5.185-21.455L187.295 94.671c-3.364 1.205-6.67 2.556-9.956 3.96L73.307 278.818c.427 3.547.91 7.085 1.544 10.609zm-2.594-25.94l91.302-158.14a169.95 169.95 0 00-11.666 6.923l-79.478 137.66c-.235 4.536-.314 9.049-.162 13.565m2.558-34.867l59.833-103.631a169.493 169.493 0 00-17.282 16.648l-36.773 63.693a169.177 169.177 0 00-5.777 23.29z"/></g><defs><clipPath id="clip0_210_7637"><path d="M0 0h227v165c0 16.569-13.431 30-30 30H0V0z" fill="#fff"/></clipPath></defs></svg>