<svg width="162" height="76" fill="none" xmlns="http://www.w3.org/2000/svg"><path d="M153.298.674a1.5 1.5 0 012.028.624l6.317 11.93a1.5 1.5 0 11-2.651 1.405l-5.616-10.605-10.605 5.615a1.5 1.5 0 11-1.403-2.65l11.93-6.319zM0 37.733a8 8 0 1116 0 8 8 0 01-16 0zm8 0l1.272-.795v.001a1.257 1.257 0 01.039.06l.136.209c.123.186.312.466.565.827a61.926 61.926 0 002.304 3.062l-2.343 1.872a64.909 64.909 0 01-2.417-3.211 39.314 39.314 0 01-.811-1.203l-.012-.019-.003-.005-.001-.002v-.001h-.001L8 37.733zm11.362 11.103a89.874 89.874 0 007.934 6.866l-1.827 2.38a92.882 92.882 0 01-8.2-7.096l2.093-2.15zm16.61 12.742a84.159 84.159 0 009.329 4.772l-1.197 2.752a87.147 87.147 0 01-9.66-4.943l1.529-2.581zm19.169 8.329c1.648.48 3.342.916 5.08 1.304l-.652 2.928a85.323 85.323 0 01-5.266-1.352l.838-2.88zm5.08 1.304c1.694.377 3.408.671 5.139.882l-.363 2.978a56.155 56.155 0 01-5.428-.932l.653-2.928zm15.571 1.174a63.166 63.166 0 0010.354-1.534l.68 2.922a66.158 66.158 0 01-10.846 1.606l-.188-2.995zm20.365-4.678a78.247 78.247 0 009.489-4.533l1.469 2.615a81.225 81.225 0 01-9.852 4.707l-1.106-2.789zm18.334-10.257a92.53 92.53 0 008.121-6.742l2.044 2.196a95.4 95.4 0 01-8.386 6.96l-1.779-2.414zm15.452-14.338a104.837 104.837 0 006.516-8.331l2.453 1.728a107.892 107.892 0 01-6.704 8.57l-2.265-1.967zm12.181-17.258a116.296 116.296 0 004.816-9.43l2.73 1.243a119.268 119.268 0 01-4.939 9.673l-2.607-1.486zm8.778-19.26a127.38 127.38 0 001.664-5.035l2.868.882a130.309 130.309 0 01-1.704 5.154l-2.828-1z" fill="#F57549"/></svg>