<svg width="153" height="63" fill="none" xmlns="http://www.w3.org/2000/svg"><path d="M147.129 55.782a1.5 1.5 0 001.824-1.083l3.337-13.081a1.5 1.5 0 00-2.907-.741l-2.966 11.627-11.628-2.965a1.5 1.5 0 00-.741 2.907l13.081 3.336zM.783 56.399a8 8 0 1015.455-4.141 8 8 0 00-15.455 4.14zm7.727-2.07a1048.243 1048.243 0 011.451.38v-.001l.004-.011a8.422 8.422 0 01.079-.282c.059-.205.15-.511.277-.91.253-.8.647-1.967 1.206-3.422l-2.8-1.076a64.604 64.604 0 00-1.266 3.59 39.551 39.551 0 00-.394 1.32l-.005.021-.002.006v.003l1.45.381zm7.15-13.285a85.38 85.38 0 015.163-8.5l-2.468-1.705a88.4 88.4 0 00-5.346 8.799l2.65 1.406zm11.296-16.31a75.141 75.141 0 017.067-6.956l-1.957-2.273a78.134 78.134 0 00-7.349 7.232l2.24 1.996zm15-12.883a70.236 70.236 0 014.265-2.537l-1.442-2.63a73.246 73.246 0 00-4.446 2.644l1.624 2.523zm4.265-2.537a44.856 44.856 0 014.476-2.138l-1.143-2.774a47.854 47.854 0 00-4.775 2.281l1.442 2.631zm14.004-4.927c3.207-.59 6.527-.88 9.927-.868l.01-3a56.695 56.695 0 00-10.48.918l.543 2.95zm19.892 0a70.405 70.405 0 019.752 2.378l.912-2.858a73.405 73.405 0 00-10.168-2.48l-.496 2.96zm19.117 6.048a88.662 88.662 0 018.876 4.773l1.566-2.558a91.506 91.506 0 00-9.177-4.935l-1.265 2.72zm17.205 10.496a106.099 106.099 0 017.718 6.52l2.041-2.197a108.758 108.758 0 00-7.936-6.705l-1.823 2.382zm14.816 13.735a122.326 122.326 0 016.464 7.807l2.387-1.817a125.157 125.157 0 00-6.622-7.998l-2.229 2.008zM143.54 50.78a136.998 136.998 0 012.67 4.315l2.58-1.531a138.963 138.963 0 00-2.729-4.41l-2.521 1.626z" fill="#F57549"/></svg>