<svg width="227" height="195" fill="none" xmlns="http://www.w3.org/2000/svg"><g clip-path="url(#clip0_210_7766)" fill="#fff"><path d="M162.35 411.852l174.734-302.646a82.197 82.197 0 00-2.855-1.699c-.951-.549-1.932-1.116-2.905-1.627L156.591 408.527a84.17 84.17 0 002.861 1.703 83.745 83.745 0 002.898 1.622zm-13.011-7.898l174.382-302.037c-1.991-.997-3.992-1.908-6.025-2.849L143.864 400.154c1.827 1.298 3.608 2.57 5.479 3.793m-12.33-9.059L309.706 95.775c-2.093-.822-4.214-1.61-6.342-2.3L131.845 390.553c1.666 1.49 3.41 2.933 5.163 4.342m-11.639-10.274L294.993 90.825a121.594 121.594 0 00-6.658-1.753L120.522 379.731a121.437 121.437 0 004.847 4.89zm-10.905-11.546l165.081-285.93c-2.332-.422-4.658-.84-6.992-1.172L109.956 367.599c1.455 1.856 2.975 3.668 4.512 5.469m-10.113-12.917l158.938-275.29a132.15 132.15 0 00-7.375-.511L100.22 354.027a131.817 131.817 0 004.13 6.131m-9.233-14.53L246.102 84.115c-2.618.002-5.203.103-7.815.251L91.427 338.735c1.178 2.335 2.382 4.625 3.69 6.893zm-8.174-16.276L187.351 155.44l40.56-70.251c-2.803.321-5.58.668-8.316 1.12L83.759 321.582c.972 2.603 2.065 5.173 3.188 7.762m-6.912-18.461l128.432-222.45a165.814 165.814 0 00-9.011 2.323L77.541 301.919a165.964 165.964 0 002.494 8.964zm-5.185-21.455L187.294 94.671c-3.364 1.205-6.67 2.556-9.956 3.96L73.306 278.819c.428 3.547.91 7.085 1.544 10.609zm-2.594-25.94l91.302-158.14a170.114 170.114 0 00-11.666 6.923l-79.478 137.66c-.235 4.536-.315 9.049-.162 13.565m2.558-34.867l59.833-103.631a169.39 169.39 0 00-17.282 16.648l-36.773 63.693a169.177 169.177 0 00-5.777 23.29z"/></g><defs><clipPath id="clip0_210_7766"><path d="M0 0h227v165c0 16.569-13.431 30-30 30H0V0z" fill="#fff"/></clipPath></defs></svg>