<svg width="238" height="78" fill="none" xmlns="http://www.w3.org/2000/svg"><path d="M237.93 59.276a1.5 1.5 0 00-1.184-1.76l-13.249-2.593a1.5 1.5 0 10-.576 2.944l11.777 2.305-2.305 11.777a1.5 1.5 0 002.944.576l2.593-13.249zM.759 26.82a8 8 0 1016 0 8 8 0 00-16 0zm8 0l1.244.839-.001.001.005-.008a7.64 7.64 0 01.152-.213c.114-.157.29-.395.532-.701a40.292 40.292 0 012.228-2.58l-2.191-2.05a43.268 43.268 0 00-2.395 2.775 26.281 26.281 0 00-.757 1.01l-.042.062-.013.018-.004.006-.001.002v.001l1.243.838zm11.11-8.924a65.926 65.926 0 017.85-5.168l-1.47-2.615a68.918 68.918 0 00-8.207 5.404l1.827 2.38zm16.33-9.21a75.958 75.958 0 018.952-2.928l-.757-2.903A78.957 78.957 0 0035.088 5.9l1.11 2.787zm18.21-4.778c2.97-.421 6.105-.71 9.412-.837L63.706.073c-3.409.13-6.647.429-9.72.865l.422 2.97zm18.896-.755c1.546.083 3.124.2 4.734.355l.286-2.986a116.356 116.356 0 00-4.86-.365l-.16 2.996zm4.734.355c1.671.16 3.312.446 4.926.848l.725-2.91a36.637 36.637 0 00-5.365-.924l-.286 2.986zm14.268 4.526c2.889 1.548 5.717 3.435 8.512 5.59l1.832-2.376c-2.897-2.233-5.864-4.217-8.927-5.858l-1.417 2.644zm16.316 12.307c2.454 2.31 4.893 4.772 7.339 7.329l2.168-2.073c-2.468-2.582-4.946-5.082-7.45-7.44l-2.057 2.184zm14.451 14.95c2.339 2.541 4.703 5.124 7.099 7.685l2.191-2.049c-2.384-2.55-4.736-5.118-7.082-7.668l-2.208 2.031zm14.381 15.247a171.11 171.11 0 007.664 7.237l1.986-2.249a168.373 168.373 0 01-7.53-7.11l-2.12 2.122zm15.9 13.887c2.885 2.101 5.868 4.025 8.968 5.711l1.434-2.635c-2.969-1.615-5.842-3.466-8.636-5.501l-1.766 2.425zm18.736 10.034a55.224 55.224 0 0010.428 2.483l.406-2.973a52.258 52.258 0 01-9.864-2.349l-.97 2.839zm21.138 2.888c3.392-.196 6.901-.697 10.537-1.536l-.675-2.923c-3.478.803-6.819 1.279-10.035 1.464l.173 2.995zm20.76-4.684a98.453 98.453 0 009.622-4.306l-1.365-2.672a95.37 95.37 0 01-9.328 4.176l1.071 2.802zm18.791-9.507a150.771 150.771 0 004.515-2.923l-1.674-2.49a146.916 146.916 0 01-4.425 2.865l1.584 2.548z" fill="#F57549"/></svg>