<svg width="120" height="137" fill="none" xmlns="http://www.w3.org/2000/svg"><path d="M51.86.5a1.5 1.5 0 000 3v-3zm21.615 125.561a1.5 1.5 0 000-2.122l-9.546-9.546a1.501 1.501 0 00-2.122 2.122L70.293 125l-8.486 8.485a1.5 1.5 0 002.122 2.122l9.546-9.546zM51.86 3.5H108v-3H51.86v3zM116.5 12v41.249h3V12h-3zM108 61.749H12v3h96v-3zM.5 73.249V115h3V73.249h-3zM12 126.5h60.414v-3H12v3zM.5 115c0 6.351 5.149 11.5 11.5 11.5v-3a8.5 8.5 0 01-8.5-8.5h-3zM12 61.749c-6.351 0-11.5 5.149-11.5 11.5h3a8.5 8.5 0 018.5-8.5v-3zm104.5-8.5a8.5 8.5 0 01-8.5 8.5v3c6.351 0 11.5-5.149 11.5-11.5h-3zM108 3.5a8.5 8.5 0 018.5 8.5h3c0-6.351-5.149-11.5-11.5-11.5v3z" fill="#fff"/></svg>