<svg width="222" height="44" fill="none" xmlns="http://www.w3.org/2000/svg"><path d="M0 12.01a6.25 6.25 0 016.246-6.247c3.446 0 6.254 2.8 6.254 6.246a6.3 6.3 0 01-.103 1.146A8.389 8.389 0 009.14 12.5c-3.05 0-5.703 1.629-7.184 4.05A6.228 6.228 0 010 12.017m10.493 8.9a8.41 8.41 0 011.904-5.333 6.262 6.262 0 00-3.257-.922 6.26 6.26 0 00-6.254 6.254 6.26 6.26 0 006.254 6.255c1.19 0 2.3-.345 3.257-.93a8.373 8.373 0 01-1.904-5.325zm11.32-.483a8.392 8.392 0 01-7.185-4.058 6.25 6.25 0 00-1.964 4.54c0 3.446 2.8 6.255 6.246 6.255a6.265 6.265 0 006.15-7.4 8.338 8.338 0 01-3.247.654m.612-14.637c.008.164.026.319.026.474 0 3.937-2.731 7.254-6.41 8.167A6.254 6.254 0 0028.06 12a6.256 6.256 0 00-5.634-6.22M14.025.01a6.265 6.265 0 00-5.763 3.825c3.67.913 6.41 4.221 6.41 8.167 0 .163-.01.327-.018.474a6.255 6.255 0 005.626-6.22A6.265 6.265 0 0014.025 0M39.06 6.625c-.241 0-.603.155-.706.241-.078.078-.198.362-.233.948-.026.525-.026 3.739-.06 6.702 0 2.37.06 4.058.06 4.704.026 1.594.103 2.059 1.611 2.447.517.103.724.31.724.542 0 .207-.44.37-.802.37-.68 0-2.162-.163-3.299-.163-.75 0-2.024.104-2.826.104-.603 0-.965-.138-.965-.423 0-.18.362-.387.62-.465 1.276-.31 1.594-.698 1.663-1.895.078-1.034.155-2.731.155-4.058 0-.827 0-6.642-.051-7.4-.078-.913-.207-1.327-1.637-1.516-.345-.052-.603-.233-.603-.388 0-.207.241-.362.551-.405.155-.026.62-.026.853-.026 1.654 0 3.79-.206 4.962-.206 2.499 0 4.179.465 5.247 1.507a4.912 4.912 0 011.507 3.515c0 2.137-.964 3.274-1.714 3.92-.68.569-2.102 1.171-3.11 1.171-.284 0-1.017-.06-1.352-.18-.37-.164-.552-.285-.552-.526 0-.103.181-.258.388-.258h.388c1.094 0 2.705-1.301 2.705-3.998 0-2.085-1.396-4.264-3.533-4.264m26.569 7.323c0 3.411-1.447 5.617-3.274 7.072-1.473 1.146-3.687 1.87-5.685 1.87-2.731 0-5.126-1.034-6.763-2.783-1.396-1.507-2.231-3.558-2.231-5.953 0-3.17 1.395-5.186 3.35-6.754 1.164-.913 3.352-1.878 5.532-1.878 5.737 0 9.063 4.265 9.063 8.417M52.999 7.762c-.887.853-1.818 2.722-1.818 5.815 0 3.998 2.447 8.34 6.238 8.34 1.43 0 2.309-.724 2.645-1.069 1.094-1.085 1.998-3.325 1.998-6.1 0-2.058-.801-5.168-2.696-6.908-.888-.784-2.283-1.405-3.438-1.405-1.154 0-2.334.724-2.929 1.327zm28.145-1.818c.62.155 1.275.31 1.87.388.18 0 .387.31.387.707.026.723.086 1.628.138 2.386.026.543-.155.982-.44.982-.129 0-.361-.302-.49-.698-.267-.81-.646-1.516-1.094-1.843-1.112-.93-2.438-1.517-3.843-1.517-4.135 0-6.073 3.274-6.073 7.228 0 1.74.31 3.248.887 4.385 1.43 2.87 3.79 3.877 5.815 3.877.336 0 1.611-.052 2.524-.603.948-.543 1.654-1.292 2.257-2.36.31-.57.492-.81.707-.81.276 0 .276.68.198.965-.12.646-.543 1.8-.784 2.265-.077.233-.543.646-.93.827-.362.13-2.154.75-4.54.75-3.843 0-6.582-1.715-7.65-2.93-.983-1.145-2.18-2.963-2.18-5.849 0-3.144 1.775-5.35 2.86-6.237 2.206-1.818 4.885-2.343 7.021-2.343 1.198 0 2.447.18 3.377.422m5.299-.121c.62 0 1.878.138 2.68.138.8 0 2.282-.104 2.91-.104.518 0 .802.121.802.362s-.388.362-.672.44c-1.008.284-1.223.422-1.292 1.593-.06.965-.026 3.869-.026 5.092 0 .095.078.258.181.258 1.413-.103 2.266-.542 3.196-2.059.724-1.188 1.25-2.18 1.895-3.187 1.034-1.715 2.283-2.809 3.696-2.809.879 0 1.353.362 1.353 1.094 0 .233-.19.664-.345.827-.207.233-.439.285-.749.233-.285-.052-.63-.12-.888-.12-1.533 0-2.205 1.085-2.929 2.23-.732 1.155-1.3 2.06-1.697 2.602a.42.42 0 000 .207c.603 1.146 2.912 4.807 4.058 6.315 1.714 2.266 2.386 2.447 3.773 2.757.155.06.414.163.414.293 0 .224-.155.379-.517.482-.362.104-.965.13-1.56.13-2.282 0-3.394-.362-4.42-1.715-.964-1.197-2.05-2.886-3.247-4.781-.861-1.379-1.189-1.818-2.024-1.853-.121 0-.156.181-.181.32 0 2.101.077 4.824.103 5.788.026.526.155.914 1.292 1.198.474.12.767.319.767.517 0 .232-.448.388-.853.388-.568 0-2.369-.052-3.17-.052-.801 0-2.102.103-2.938.103-.388 0-.698-.207-.698-.387 0-.242.207-.362.784-.492 1.24-.284 1.525-.646 1.611-2.24.052-1.292.052-3.084.052-5.866 0-3.05-.052-4.023-.078-4.971-.025-1.223-.258-1.55-1.171-1.818-.672-.18-.853-.362-.853-.543 0-.224.422-.361.784-.361m33.926 8.124c0 3.411-1.456 5.617-3.274 7.072-1.473 1.146-3.687 1.87-5.686 1.87-2.731 0-5.126-1.034-6.763-2.783-1.395-1.507-2.231-3.558-2.231-5.953 0-3.17 1.396-5.186 3.351-6.754 1.163-.913 3.352-1.878 5.531-1.878 5.738 0 9.063 4.265 9.063 8.417m-12.621-6.177c-.887.853-1.818 2.722-1.818 5.815 0 3.998 2.438 8.34 6.238 8.34 1.43 0 2.308-.724 2.644-1.069 1.095-1.085 1.999-3.325 1.999-6.1 0-2.058-.801-5.168-2.696-6.908-.888-.784-2.292-1.405-3.438-1.405-1.146 0-2.334.724-2.929 1.327zm19.633 5.618c1.758 0 5.204-.104 7.917-.104.104 0 .207-.259.242-.646.051-.345.051-3.377-.061-4.385-.103-.94-.232-1.198-1.266-1.482-.362-.104-.758-.259-.758-.526 0-.18.267-.336.853-.336.344 0 2.265.078 2.946.078.827 0 2.464-.104 2.783-.104.491 0 .801.138.801.345 0 .259-.233.405-.827.569-.931.206-1.094.62-1.146 1.37-.138 1.231-.207 3.557-.207 7.253 0 2.542.078 3.894.104 4.747.025 1.008.284 1.094 1.326 1.43.466.164.733.345.733.552 0 .275-.371.361-.836.361-.439 0-1.835-.086-2.619-.086-.569 0-2.653.138-3.17.138-.629 0-.888-.138-.888-.362 0-.224.345-.44.707-.543 1.266-.344 1.327-.542 1.456-2.472.077-1.034.094-3.472.051-4.178 0-.224-.103-.336-.206-.336-2.077 0-7.401-.086-7.917-.026-.138.026-.345.232-.345.388-.052.964 0 3.739.026 4.574.026 1.223.181 1.611 1.249 1.921.543.155.913.362.913.646.017.259-.491.345-.836.345-.18 0-2.334-.086-3.247-.086-.603 0-1.922.103-2.809.103-.663 0-.904-.12-.904-.336 0-.284.284-.44.723-.568 1.155-.32 1.379-.603 1.516-1.689.104-1.034.233-4.91.233-8.477 0-.784.06-2.205 0-3.248-.052-.853-.284-1.146-1.146-1.395-.603-.19-.887-.37-.887-.578 0-.258.345-.362.81-.362.706 0 2.136.104 2.808.104 1.086 0 2.257-.078 2.886-.078.543 0 .853.104.853.336 0 .293-.344.448-.887.578-1.094.232-1.172.723-1.198 1.791-.051.93-.155 3.955-.077 4.446.026.198.129.336.31.336m27.68-7.598c.181 0 .336.137.336.283-.052.75-.017 2.421 0 3.3.026.336-.155.827-.362.827s-.465-.138-.62-.724c-.345-1.154-.81-2.343-1.775-2.446-.801-.104-2.748-.078-3.291-.06-.525 0-.646.163-.646.422-.112 1.352-.112 3.695-.112 5.436 0 1.74.026 5.29.026 7.141.026 1.112.448 1.379 1.637 1.663.387.12.68.302.68.517 0 .215-.318.388-.784.388-.646 0-2.231-.138-3.222-.138-.99 0-2.601.163-3.11.163-.422 0-.706-.24-.706-.361 0-.285.31-.466.784-.569 1.111-.267 1.223-.706 1.266-1.3.086-.81.285-2.361.285-7.453 0-2.42 0-3.997-.052-4.678-.043-.861-.233-1.171-1.249-1.413-.569-.155-.784-.301-.784-.568 0-.181.362-.336.749-.336 1.146 0 2.163.077 3.196.077h3.377c3.429 0 4.05-.103 4.36-.18m8.899.844c-.241 0-.603.155-.706.241-.078.078-.199.362-.233.948-.026.525-.026 3.739-.06 6.702 0 2.37.06 4.058.06 4.704.026 1.594.103 2.059 1.611 2.447.517.103.724.31.724.542 0 .207-.44.37-.802.37-.68 0-2.162-.163-3.299-.163-.75 0-2.025.104-2.826.104-.603 0-.965-.138-.965-.423 0-.18.362-.387.621-.465 1.275-.31 1.593-.698 1.662-1.895.078-1.034.155-2.731.155-4.058 0-.827 0-6.642-.051-7.4-.078-.913-.207-1.327-1.637-1.516-.345-.052-.603-.233-.603-.388 0-.207.241-.362.551-.405.155-.026.62-.026.853-.026 1.654 0 3.791-.206 4.962-.206 2.499 0 4.178.465 5.247 1.507a4.913 4.913 0 011.507 3.515c0 2.137-.965 3.274-1.714 3.92-.681.569-2.102 1.171-3.11 1.171-.284 0-1.017-.06-1.353-.18-.361-.164-.551-.285-.551-.526 0-.103.19-.258.388-.258h.387c1.095 0 2.706-1.301 2.706-3.998 0-2.085-1.396-4.264-3.533-4.264m18.014-.655c.853 0 1.921-.103 2.283-.155.104-.026.284.155.31.336.026.465.026 2.266.026 2.783 0 .362-.189.732-.422.732-.233 0-.448-.388-.491-.655-.345-1.447-1.068-1.843-1.663-1.938-.482-.086-1.611-.19-3.609-.164-.104 0-.311.104-.336.733-.061.646-.138 4.255-.104 5.686 0 .077.104.258.259.258h2.076c1.852 0 1.792-.095 2.283-1.24.164-.388.344-.673.568-.673.207 0 .285.44.268.724-.061.724-.104 1.189-.104 1.792 0 .706.052 1.12.104 1.775.017.465-.13.784-.345.784-.215 0-.405-.32-.491-.569-.336-1.146-.672-1.327-1.689-1.413-.827-.077-1.792-.077-2.601-.077-.104 0-.336.258-.336.318-.104.724-.078 2.749-.061 3.61.026.629 0 1.594.104 2.137.077.24.318.568.568.628.422.078 1.215.155 2.102.155.784 0 1.741 0 2.387-.24.784-.285 1.481-.905 2.059-1.922.361-.672.603-.904.801-.904.267 0 .241.542.207.75 0 .206-.75 2.6-.982 3.014-.087.181-.492.336-.629.336-.285 0-6.703-.138-8.658-.138-1.732 0-2.025.138-2.964.138-.491 0-.879-.077-.879-.336 0-.24.336-.422.776-.525 1.335-.31 1.662-.569 1.766-1.973.077-1.094.206-3.075.206-6.297 0-3.223.018-4.256-.025-5.006-.052-.939-.259-1.456-1.379-1.663-.542-.103-.827-.206-.827-.465 0-.232.448-.387.81-.387 1.215 0 3.351.077 4.704.077h3.894l.034-.026zm18.634-.026c.62.155 1.275.31 1.87.388.181 0 .387.31.387.707a59.6 59.6 0 00.138 2.386c.026.543-.155.982-.439.982-.129 0-.371-.302-.491-.698-.267-.81-.646-1.516-1.094-1.843-1.112-.93-2.438-1.517-3.843-1.517-4.135 0-6.073 3.274-6.073 7.228 0 1.74.301 3.248.887 4.385 1.43 2.87 3.791 3.877 5.815 3.877.336 0 1.611-.052 2.516-.603.965-.543 1.663-1.292 2.266-2.36.31-.57.491-.81.706-.81.284 0 .284.68.198.965-.12.646-.543 1.8-.784 2.265-.077.233-.543.646-.93.827-.362.13-2.154.75-4.54.75-3.843 0-6.582-1.715-7.65-2.93-.983-1.145-2.18-2.963-2.18-5.849 0-3.144 1.775-5.35 2.86-6.237 2.206-1.818 4.885-2.343 7.021-2.343 1.198 0 2.447.18 3.377.422m17.687.008c.62.155 1.275.31 1.87.388.181 0 .387.31.387.707.026.723.086 1.628.138 2.386.026.543-.155.982-.439.982-.129 0-.371-.302-.491-.698-.267-.81-.646-1.516-1.094-1.843-1.112-.93-2.438-1.517-3.843-1.517-4.135 0-6.073 3.274-6.073 7.228 0 1.74.31 3.248.887 4.385 1.43 2.87 3.791 3.877 5.815 3.877.336 0 1.611-.052 2.516-.603.965-.543 1.662-1.292 2.266-2.36.31-.57.491-.81.706-.81.276 0 .276.68.198.965-.121.646-.543 1.8-.784 2.265-.077.233-.543.646-.93.827-.362.13-2.154.75-4.54.75-3.843 0-6.582-1.715-7.65-2.93-.983-1.145-2.18-2.963-2.18-5.849 0-3.144 1.775-5.35 2.86-6.237 2.206-1.818 4.885-2.343 7.021-2.343 1.198 0 2.447.18 3.377.422M41.11 31.083c.449 0 1.388-.035 1.551-.035.267 0 .44.07.44.181 0 .12-.147.216-.448.302-.603.155-.646.276-.69.706-.06.569-.077 1.473-.077 2.981 0 1.353.026 3.05.052 3.515.008.543.163.629.715.767.18.051.387.163.387.275 0 .155-.18.233-.44.233-.24 0-1.084-.06-1.507-.06-.327 0-1.335.069-1.62.069-.335 0-.482-.087-.482-.207s.198-.233.388-.267c.68-.172.732-.302.784-1.344.017-.276.026-1.706.026-3.136.017-1.508-.026-2.826-.035-3.153 0-.181-.12-.259-.198-.259-1.008 0-3.566-.034-3.946 0-.077 0-.18.113-.198.207-.034.37-.069 1.896-.069 3.386 0 1.49.01 2.817.01 3.162 0 .663.111.878.688 1.033.293.087.491.199.491.31.009.138-.267.216-.448.216-.103 0-1.266-.035-1.748-.035-.328 0-1.008.07-1.465.07-.396 0-.534-.095-.534-.207 0-.155.276-.242.43-.276.647-.147.733-.353.776-.948.026-.508.12-1.99.12-3.73 0-1.163.026-1.999 0-2.533-.025-.474-.18-.654-.611-.766-.328-.087-.474-.199-.474-.31 0-.147.18-.19.43-.19.38 0 1.155.034 1.534.034h6.169v.009zm8.064 3.98c.37.44.69 1.077.69 1.835 0 1.016-.448 1.843-1.207 2.43-.783.62-1.662.714-2.153.714-.259 0-.526-.008-.68-.034-.061-.009-.113.12-.113.198-.017.629.009 1.8.06 2.11.035.371.112.578.664.75.284.086.379.198.379.293 0 .12-.224.18-.388.18-.388 0-1.361-.068-1.87-.068-.344 0-.533.035-1.136.035-.233 0-.405-.087-.405-.207 0-.086.146-.198.37-.25.655-.147.741-.319.784-1.146.017-.482.052-1.61.052-3.015 0-.94.008-2.507-.017-3.041-.01-.293-.06-.353-.095-.388-.259-.198-.534-.44-.534-.508 0-.078.155-.267.292-.328.276-.086 1.052-.318 1.43-.542.147-.086.25-.138.276-.138.06 0 .173.138.173.198-.026.25-.026.43-.052.655 0 .06.077.112.112.095a7.45 7.45 0 01.827-.448c.241-.095.56-.19.965-.19.56 0 1.206.345 1.594.784m-3.317.233s-.147.206-.155.361c-.086.62-.086 1.75-.06 2.499 0 .25.06.482.146.646.293.517.844.792 1.146.792a.72.72 0 00.474-.163c.732-.534.835-1.74.835-2.11 0-.371-.069-1.095-.577-1.664-.31-.353-.827-.525-1.06-.525a1.78 1.78 0 00-.75.172m11.2 1.878c0 1.19-.724 2.05-1.249 2.378-.569.405-1.284.569-1.93.569-.646 0-1.413-.293-1.92-.724-.613-.491-1.06-1.37-1.06-2.162 0-.983.439-1.723.973-2.171a3.467 3.467 0 012.24-.81c1.395 0 2.955 1.094 2.955 2.912m-3.911-2.128c-.328.293-.569.913-.569 1.835 0 .456.06.99.164 1.344.293.982.939 1.456 1.533 1.456.13 0 .397-.112.612-.37.293-.363.525-1.103.525-1.896 0-.595-.12-1.508-.56-2.11-.258-.32-.62-.56-1.008-.56-.24 0-.456.094-.689.3m9.692-.395c.181.12.241.327.241.508 0 .25-.465.655-.542.655-.138 0-.354-.095-.646-.354-.38-.301-.681-.603-1.103-.603-.155 0-.388.087-.603.302-.354.37-.552 1.068-.552 1.714 0 .905.38 1.379.448 1.465.267.362.776.767 1.534.767.396 0 .87-.173 1.344-.466.069-.034.18 0 .18.112 0 .147-.111.32-.232.431-.474.508-1.284.94-2.154.94-1.016 0-1.809-.535-2.197-1.12a3.179 3.179 0 01-.465-1.62c0-1.094.56-1.896 1.413-2.438.483-.354 1.413-.604 1.973-.604.422 0 1.111.104 1.37.302m2.274 5.375c-.172 0-.353-.034-.353-.172 0-.103.094-.19.344-.267.37-.095.577-.19.612-.456.026-.423.077-1.31.077-2.344v-1.645c0-.06-.025-.12-.112-.147-.18-.008-.534-.026-.646-.026-.422 0-.603.414-.74.802-.113.267-.216.387-.337.387-.12 0-.18-.25-.172-.456.017-.474.103-.879.103-1.18-.017-.087.095-.207.164-.207.078 0 .155.06.259.095.094.051.542.077.878.077h2.757c.336 0 .844-.052.965-.086.095-.035.198-.086.267-.086s.12.12.12.207c-.034.413-.025.74-.008 1.223.009.276-.138.448-.258.448-.095 0-.173-.086-.233-.362-.112-.526-.353-.861-.715-.861-.276 0-.603.017-.698.025-.077.018-.103.121-.112.207-.008.388 0 1.12 0 1.766 0 1.025.009 1.62.06 2.008.035.396.147.482.535.602.215.07.318.173.318.216 0 .112-.198.232-.353.232-.474 0-1.034-.034-1.344-.034-.319 0-.904.034-1.361.034m10.424-4.927c.38.44.698 1.077.698 1.835 0 1.016-.448 1.843-1.206 2.43-.784.62-1.663.714-2.154.714a4.91 4.91 0 01-.68-.034c-.06-.009-.113.12-.113.198-.017.629.01 1.8.06 2.11.035.371.113.578.664.75.285.086.38.198.38.293 0 .12-.225.18-.388.18-.388 0-1.362-.068-1.87-.068-.344 0-.534.035-1.137.035-.233 0-.405-.087-.405-.207 0-.086.147-.198.37-.25.655-.147.741-.319.785-1.146.017-.482.051-1.61.051-3.015 0-.94.009-2.507-.017-3.041-.009-.293-.06-.353-.095-.388-.258-.198-.534-.44-.534-.508 0-.078.155-.267.293-.328.276-.086 1.051-.318 1.43-.542.147-.086.25-.138.276-.138.06 0 .172.138.172.198-.026.25-.026.43-.052.655 0 .06.078.112.112.095.259-.164.63-.362.827-.448.242-.095.56-.19.965-.19.56 0 1.206.345 1.585.784m-3.3.233s-.146.206-.154.361c-.086.62-.086 1.75-.06 2.499 0 .25.06.482.146.646.293.517.844.792 1.146.792a.72.72 0 00.474-.163c.732-.534.835-1.74.835-2.11 0-.371-.069-1.095-.577-1.664-.31-.353-.827-.525-1.06-.525a1.78 1.78 0 00-.75.172m8.952-.276c.164.216.302.57.302 1.198 0 .543-.06 2.205-.06 2.37 0 .387.283.55.525.55.069 0 .344-.103.482-.163.035-.026.06-.017.086.008.026.06.035.155.035.198 0 .268-.655.948-1.439.948-.405 0-.836-.12-1.051-.68-.017-.06-.103-.087-.138-.06-.344.258-.922.525-1.103.594a2.03 2.03 0 01-.611.112c-.526 0-1.086-.63-1.086-1.422 0-.25.112-.517.259-.715.138-.19.37-.276.508-.336.302-.12 1.577-.474 1.904-.568.164-.06.25-.156.25-.207.017-.138.052-.896.026-1.077-.009-.345-.302-.905-.94-.905-.189 0-.344.026-.447.104-.052.026-.078.163-.078.637 0 .06-.026.104-.06.138-.104.095-1.137.552-1.24.552-.078 0-.182-.104-.182-.19 0-.405.31-.784 1.18-1.344.517-.345 1.198-.526 1.396-.526.844 0 1.25.448 1.456.759m-1.284 4.118c.06-.035.112-.207.112-.267.026-.199.06-.785.06-1.25 0-.06-.06-.138-.103-.138-.232 0-.878.207-1.137.362-.163.12-.25.19-.25.56 0 .612.509.896.767.896.12 0 .396-.086.543-.172m9.545.914c-.353 0-1.034-.061-1.344-.061-.327 0-.732.026-1.137.026-.172 0-.379-.06-.379-.207 0-.12.155-.181.388-.25.258-.06.388-.224.413-.345.026-.232.035-.723.035-1.662 0-.095-.035-.164-.112-.164h-1.827c-.094.009-.12.069-.146.276-.009.241 0 .99.026 1.344.017.327.095.49.336.551.224.069.353.164.353.25s-.112.232-.396.232c-.104 0-.715-.051-1.025-.051-.449 0-1.052.051-1.284.051-.233 0-.353-.137-.353-.25 0-.077.12-.18.353-.232.327-.086.388-.19.448-.319.06-.206.086-.827.086-1.895s0-1.62-.017-1.887c-.009-.344-.06-.439-.474-.56-.207-.069-.31-.172-.31-.267 0-.146.163-.18.344-.18.345 0 .896.034 1.207.034.447 0 .637-.035 1.076-.035.224 0 .354.06.354.181 0 .087-.078.173-.285.25-.344.138-.387.233-.396.474-.017.44-.017 1.266-.017 1.396.017.051.06.112.112.112h1.843s.121-.07.121-.121c.017-.38.017-1.223 0-1.37-.009-.336-.12-.405-.353-.49-.164-.07-.336-.139-.336-.277 0-.111.172-.155.362-.155.258 0 .723.035 1.068.035.465 0 .775-.035 1.154-.035.242 0 .38.07.38.164 0 .138-.147.198-.31.258-.457.147-.449.268-.483.62-.017.121-.017.923-.017 1.68 0 .759.017 1.422.051 1.844.009.362.216.44.543.56.233.07.327.173.327.267 0 .147-.198.207-.353.207m5.815-5.375c.18.12.241.327.241.508 0 .25-.465.655-.543.655-.137 0-.353-.095-.646-.354-.379-.301-.68-.603-1.102-.603-.155 0-.388.087-.603.302-.354.37-.552 1.068-.552 1.714 0 .905.38 1.379.448 1.465.267.362.776.767 1.534.767.396 0 .87-.173 1.344-.466.069-.034.18 0 .18.112 0 .147-.112.32-.232.431-.474.508-1.284.94-2.154.94-1.016 0-1.809-.535-2.197-1.12a3.179 3.179 0 01-.465-1.62c0-1.094.56-1.896 1.413-2.438.483-.354 1.413-.604 1.973-.604.422 0 1.111.104 1.37.302m2.274 5.375c-.172 0-.353-.034-.353-.172 0-.103.095-.19.344-.267.37-.095.578-.19.612-.456.026-.423.078-1.31.078-2.344v-1.645c0-.06-.026-.12-.112-.147-.181-.008-.534-.026-.646-.026-.423 0-.603.414-.741.802-.112.267-.216.387-.336.387-.12 0-.181-.25-.173-.456.018-.474.104-.879.104-1.18-.017-.087.094-.207.163-.207.078 0 .156.06.259.095.095.051.543.077.879.077h2.756c.336 0 .845-.052.965-.086.095-.035.198-.086.267-.086s.121.12.121.207c-.035.413-.026.74-.009 1.223.009.276-.137.448-.258.448-.095 0-.172-.086-.233-.362-.112-.526-.353-.861-.715-.861-.275 0-.603.017-.698.025-.077.018-.103.121-.112.207-.008.388 0 1.12 0 1.766 0 1.025.01 1.62.06 2.008.035.396.147.482.535.602.215.07.319.173.319.216 0 .112-.199.232-.354.232-.473 0-1.033-.034-1.343-.034-.32 0-.905.034-1.362.034m9.253-3.118c-.078.008-.026.069.026.095.249.069.56.224.663.31.207.172.508.43.508 1 0 .749-.56 1.248-1.163 1.464-.534.198-1.214.232-1.792.232-.301 0-.62-.017-.982-.017-.448 0-1.008.026-1.499.052-.198.008-.362-.112-.362-.224 0-.12.164-.164.345-.207.491-.12.508-.327.534-.655.035-.293.06-.75.06-1.843 0-.552.009-1.034-.017-1.577-.008-.353-.051-.465-.525-.611-.173-.035-.31-.156-.31-.31 0-.078.06-.147.292-.147.259 0 .827.034 1.103.034s1.447-.069 1.895-.069c.879 0 2.059.224 2.059 1.336 0 .654-.422.965-.835 1.163m-1.766-2.06c-.19 0-.31.035-.371.078-.051.052-.077.138-.086.32-.017.189-.026 1.188 0 1.395.009.103.069.129.155.129.241 0 .672-.009.896-.095.362-.146.56-.448.56-.844 0-.396-.336-.982-1.154-.982zm.939 2.602c-.207-.146-.646-.24-.896-.24-.173 0-.259 0-.379.025-.061.009-.086.069-.095.172-.026.138-.026.664-.017 1.138 0 .267.026.482.163.689.104.155.397.319.543.319.681 0 1.172-.56 1.172-1.207 0-.422-.233-.715-.483-.895m9.072-.285c0 1.19-.724 2.05-1.249 2.378-.569.405-1.284.569-1.93.569-.646 0-1.413-.293-1.921-.724-.612-.491-1.06-1.37-1.06-2.162 0-.983.44-1.723.974-2.171a3.465 3.465 0 012.24-.81c1.395 0 2.955 1.094 2.955 2.912m-3.912-2.128c-.327.293-.568.913-.568 1.835 0 .456.06.99.163 1.344.293.982.939 1.456 1.534 1.456.129 0 .396-.112.612-.37.292-.363.525-1.103.525-1.896 0-.595-.121-1.508-.56-2.11-.258-.32-.62-.56-1.008-.56-.241 0-.456.094-.689.3m8.891 4.928a.506.506 0 00-.362.147c-.327.293-.388.982-.448 1.516-.052.31-.164.43-.267.43-.138 0-.224-.206-.233-.378-.06-.551-.086-1.68-.112-2.007-.008-.104.061-.181.112-.181.164 0 .336-.018.509-.052.06-.009.146-.034.18-.12a91.956 91.956 0 001.499-3.817c.026-.086.087-.241.121-.38.052-.154.233-.335.612-.688.095-.112.189-.173.275-.173.087 0 .173.112.354.595.396 1.163 1.335 3.834 1.559 4.35.052.112.138.233.258.233.181.034.44.034.629.034.061 0 .095.07.086.173-.034.362-.327 1.102-.404 1.912-.035.328-.19.509-.336.509-.147 0-.207-.138-.207-.457v-.448c0-.827-.276-1.18-.655-1.18h-3.153l-.017-.018zm1.189-3.756c-.026-.094-.095-.06-.121 0-.293.836-.973 2.645-1.094 3.102-.009.06.017.129.069.129.224 0 1.93.026 2.136-.017.061-.009.086-.06.069-.095-.103-.422-.878-2.705-1.051-3.127m10.08.973c0 1.19-.724 2.05-1.249 2.378-.569.405-1.284.569-1.93.569-.646 0-1.413-.293-1.921-.724-.612-.491-1.06-1.37-1.06-2.162 0-.983.439-1.723.973-2.171a3.47 3.47 0 012.24-.81c1.396 0 2.955 1.094 2.955 2.912m-3.911-2.128c-.327.293-.568.913-.568 1.835 0 .456.06.99.163 1.344.293.982.939 1.456 1.534 1.456.129 0 .396-.112.611-.37.293-.363.526-1.103.526-1.896 0-.595-.121-1.508-.56-2.11-.259-.32-.62-.56-1.008-.56-.241 0-.457.094-.689.3m9.123 1.853c-.078.008-.026.069.026.095.25.069.56.224.663.31.207.172.508.43.508 1 0 .749-.56 1.248-1.163 1.464-.534.198-1.214.232-1.792.232-.301 0-.62-.017-.982-.017-.448 0-1.008.026-1.499.052-.198.008-.361-.112-.361-.224 0-.12.163-.164.344-.207.491-.12.508-.327.534-.655.035-.293.061-.75.061-1.843 0-.552.008-1.034-.018-1.577-.008-.353-.051-.465-.525-.611-.173-.035-.31-.156-.31-.31 0-.078.06-.147.293-.147.258 0 .827.034 1.102.034.276 0 1.448-.069 1.896-.069.878 0 2.059.224 2.059 1.336 0 .654-.423.965-.836 1.163m-1.766-2.06c-.19 0-.31.035-.371.078-.051.052-.077.138-.086.32-.017.189-.026 1.188 0 1.395.009.103.069.129.155.129.242 0 .672-.009.896-.095.362-.146.56-.448.56-.844 0-.396-.336-.982-1.154-.982zm.939 2.602c-.207-.146-.646-.24-.896-.24-.172 0-.259 0-.379.025-.06.009-.086.069-.095.172-.026.138-.026.664-.017 1.138 0 .267.026.482.164.689.103.155.396.319.542.319.681 0 1.172-.56 1.172-1.207 0-.422-.233-.715-.483-.895m7.34-2.602c.328.301.534.732.534 1.232 0 .095-.146.336-.301.336h-3.058a.172.172 0 00-.156.103c-.034.104-.06.31-.06.509 0 .301.172.947.44 1.292.353.448.93.706 1.55.706.621 0 .991-.146 1.258-.49.06-.087.138-.165.181-.165.06 0 .138.095.138.181 0 .087-.052.233-.112.354-.44.663-1.094 1.206-2.24 1.206-1.611 0-2.593-1.206-2.593-2.809 0-1.12.611-2.24 1.783-2.765a2.633 2.633 0 011.146-.267c.56 0 1.137.224 1.499.594m-2.903.974c-.018.069.034.146.094.146.371.009.802 0 1.508 0 .241 0 .482-.146.482-.474 0-.396-.387-.853-.784-.853-.594 0-1.137.543-1.3 1.19m9.872-.776c.371.44.69 1.077.69 1.835 0 1.016-.448 1.843-1.207 2.43-.783.62-1.662.714-2.153.714-.259 0-.526-.008-.681-.034-.06-.009-.112.12-.112.198-.017.629.009 1.8.06 2.11.035.371.112.578.664.75.284.086.379.198.379.293 0 .12-.224.18-.388.18-.387 0-1.361-.068-1.869-.068-.345 0-.534.035-1.137.035-.233 0-.405-.087-.405-.207 0-.086.146-.198.37-.25.655-.147.741-.319.784-1.146.017-.482.052-1.61.052-3.015 0-.94.008-2.507-.017-3.041-.009-.293-.061-.353-.095-.388-.259-.198-.534-.44-.534-.508 0-.078.155-.267.293-.328.275-.086 1.051-.318 1.43-.542a1.04 1.04 0 01.275-.138c.061 0 .173.138.173.198-.026.25-.026.43-.052.655 0 .06.077.112.112.095a7.34 7.34 0 01.827-.448c.241-.095.56-.19.965-.19.56 0 1.206.345 1.594.784m-3.309.233s-.146.206-.155.361c-.086.62-.086 1.75-.06 2.499 0 .25.06.482.147.646.292.517.844.792 1.145.792.155 0 .31-.034.474-.163.732-.534.836-1.74.836-2.11 0-.371-.069-1.095-.577-1.664-.311-.353-.827-.525-1.06-.525a1.78 1.78 0 00-.75.172m5.126-.878c.267 0 .75.034 1.181.034.336 0 .784-.034 1.197-.034.147 0 .319.06.319.155 0 .111-.104.232-.319.284-.474.12-.422.31-.448.508a28.055 28.055 0 00-.026 2.541c.009.087.061.095.112.052a235.88 235.88 0 011.904-2.145c.155-.172.207-.319.207-.396v-.164c0-.198-.06-.319-.405-.422-.086-.026-.241-.12-.241-.224 0-.112.12-.18.353-.18.293 0 .663.034 1.094.034.396-.01.724-.052 1.086-.052.258 0 .353.077.353.18 0 .113-.095.19-.336.268-.388.12-.448.301-.465.482 0 .112-.009.63-.009 1.24 0 .82.026 1.879.034 2.361.018.448.293.535.552.595.215.06.336.18.336.267 0 .086-.172.207-.319.207-.353 0-.784-.052-1.223-.052-.362 0-.853.052-1.361.052-.164 0-.345-.078-.345-.207 0-.112.095-.181.336-.233.319-.103.474-.293.482-.474.026-.379.078-.913.078-2.705 0-.077-.06-.086-.103-.026-.638.716-1.474 1.637-1.982 2.24-.06.078-.146.181-.146.293v.207c0 .18.094.327.362.422.172.052.318.138.318.224 0 .147-.181.25-.362.25-.146 0-.921-.026-1.249-.026-.465 0-.801.052-1.051.052-.138 0-.387-.026-.387-.198 0-.112.129-.207.361-.267.354-.095.457-.216.509-.388.026-.198.034-.465.034-1.154 0-1.258 0-2.292-.008-2.568-.018-.319-.104-.405-.466-.542-.25-.104-.318-.199-.318-.285 0-.12.12-.18.353-.18m13.31.12c0 .12-.112.267-.344.302-.474.12-.474.293-.483.473 0 .112-.026.707-.026 1.5 0 .844.009 1.619.026 2.101.009.448.25.483.508.569.216.078.354.18.354.293 0 .103-.181.198-.371.198-.095 0-1.223-.052-1.516-.052-.457 0-.663.052-.922.052-.207 0-.396-.078-.396-.207s.12-.18.336-.232c.327-.086.491-.267.525-.422.018-.173.018-1.25.018-1.663 0-.086-.035-.112-.069-.112-.207 0-.448.19-.75.62-.37.474-.62.862-.939 1.292-.388.526-.801.802-1.706.802-.103 0-.422.017-.568-.035-.104-.026-.267-.086-.267-.198 0-.112.12-.146.25-.18.336-.096.628-.25 1.455-1.345.362-.465.741-.835.939-.956.018-.017.018-.035 0-.035-.973-.224-1.455-.766-1.455-1.387 0-.766.456-1.516 2.429-1.516.646 0 1.421.035 1.895.026.276 0 .534-.009.724-.009.164.009.37.018.37.121m-2.326.595c0-.121-.034-.276-.094-.276-.104-.026-.112-.052-.319-.052-.603 0-1.137.336-1.137 1 0 .758.663 1.145 1.499 1.162.06 0 .069-.051.069-.103.017-.43 0-1.25-.009-1.731" fill="#fff"/></svg>