<svg width="117" height="44" fill="none" xmlns="http://www.w3.org/2000/svg"><path d="M37.3 28.234h-7.89L18.89 14.005l5.26-7.114h7.89l-5.26 7.114L37.3 28.234zm-7.89 2.27l-7.752 10.494C11.246 40.361 2.966 31.692 2.966 21.12c0-2.509.475-4.904 1.328-7.114H1.147A22.67 22.67 0 000 21.12c0 11.502 8.539 21.05 19.61 22.64 2.695.396 5.44.302 8.1-.276l9.59-12.98h-7.89zm26.91-12.951c0-4.175.9-7.268 2.709-9.269 1.808-2 4.238-3.004 7.297-3.004 2.908 0 5.163.781 6.772 2.351 1.61 1.562 2.414 3.754 2.414 6.559v3.236h-5.88v-3.618c0-1.243-.262-2.184-.78-2.838-.518-.645-1.338-.971-2.454-.971-1.195 0-2.127.477-2.788 1.442-.662.956-.996 2.486-.996 4.574v10.202c0 2.128.334 3.682.996 4.654.66.973 1.593 1.459 2.788 1.459 1.1 0 1.912-.335 2.43-1.005.526-.668.797-1.698.828-3.076l.024-3.323h5.84v2.98c-.04 2.838-.86 5.054-2.454 6.655-1.592 1.602-3.84 2.4-6.747 2.4-3.092 0-5.53-1.005-7.306-3.005-1.785-2.001-2.677-5.094-2.677-9.27v-7.133h-.016zM77.44 5.76h18.24v5.045h-6.117V36.48h-6.03V10.797H77.44V5.76zm20.68 0h18.24v5.045h-6.117V36.48h-6.03V10.797H98.12V5.76z" fill="#fff"/><path d="M8.46 15.766h7.89l10.52 14.235-5.26 7.114h-7.891l5.26-7.114L8.46 15.766zm7.89-2.27l7.752-10.494c10.411.636 18.691 9.306 18.691 19.88 0 2.508-.474 4.903-1.327 7.113h3.147a22.665 22.665 0 001.147-7.115c0-11.503-8.539-21.05-19.611-22.64a22.634 22.634 0 00-8.1.277L8.46 13.497l7.89-.001z" fill="#fff"/></svg>