<svg width="116" height="55" fill="none" xmlns="http://www.w3.org/2000/svg"><mask id="a" style="mask-type:luminance" maskUnits="userSpaceOnUse" x="0" y="0" width="116" height="55"><path d="M115.126 0H0v55h115.126V0z" fill="#fff"/></mask><g mask="url(#a)"><path fill-rule="evenodd" clip-rule="evenodd" d="M77.998 46.38c.438 0 .586.096.586.593v2.676c0 .49-.154.61-.586.61h-.302V46.38h.302zm31.167 2.588c.432 0 .569.106.569.586v1.006c0 .474-.131.586-.569.586h-.438v-2.172h.438v-.006zm-34.257-1.983c0-.486.16-.61.586-.61h.314v3.877h-.314c-.426 0-.586-.112-.586-.603v-2.67.006zm-36.537 8.02h76.75V42.209h-76.75v12.798zm8.335-10.72H44.76V47.5h-1v-3.215h-1.95v8.335h1.947v-3.646h1v3.646h1.948v-8.335zm16.138-.006h-4.671v8.347h4.67v-1.58h-2.657V49.08h2.38V47.5h-2.38v-1.64h2.658v-1.58zm17.634 2.765c0-1.705-.828-2.131-2.776-2.131v-.628h-1.894v.628c-1.954 0-2.788.432-2.788 2.13v2.606c0 1.693.87 2.142 2.788 2.142v.823h1.894v-.822c1.918 0 2.776-.456 2.776-2.143v-2.605zm14.965-2.765h-4.901v1.581h1.58v6.766h1.847V45.86h1.469v-1.58h.005zm16.232 5.334c0-1.67-.71-2.113-2.616-2.113h-.332v-3.215h-1.947v8.335h1.947c2.114 0 2.948-.325 2.948-2.149v-.858zM33.239 35.814v13.13a19.208 19.208 0 01-14.024 6.062C8.607 55 0 46.428 0 35.862c0-10.567 8.607-19.139 19.221-19.139v14.391a10.794 10.794 0 00-8.956 4.742c-2.824 4.179-2.392 9.903 1.326 13.597a10.808 10.808 0 007.63 3.144c2.765 0 5.5-1.036 7.607-3.12.012-.012.024-.018.036-.024l.023-.03a5.366 5.366 0 000-7.606 5.413 5.413 0 00-7.636 0 .046.046 0 00-.024.023v-6.032h14.024l-.012.006zM30.854 9.921c1.16 5.097 1.136 8.229.633 11.804-.912 6.435-3.836 11.354-5.103 13.006-.87-1.119-2.202-3.404-3.084-5.54 0 0-1.675-4.062-2.12-8.016-.443-3.955-.254-7.98 1.043-12.503C23.407 4.606 25.733.947 26.366 0c.397.675 3.321 4.825 4.488 9.921zM26.366 33.47c.592-1.101 1.61-3.51 1.522-6.577-.125-3.125-1.184-5.422-1.498-5.967-.367.55-1.592 3.173-1.569 6.246.09 3.166.977 5.22 1.551 6.298m4.144-14.894c.036-1.942-.148-5.25-1.101-8.696-.953-3.451-2.8-6.73-3.072-7.151-.273.426-1.735 3.09-3.025 7.258-.338 1.249-.953 3.96-1.06 6.6-.124 3.203.308 6.387.486 7.281 0-1.06.017-4.593.674-7.512.658-2.924 1.907-6.287 2.919-7.997 1.1 1.8 2.48 5.688 2.96 8.015.491 2.332.745 5.31.639 7.423.29-1.225.527-3.28.568-5.221m79.828-1.948h4.794V35.82h-3.693V23.785h-.125l-1.9 12.035h-2.948l-1.894-12.035h-.125V35.82h-3.693V16.628h4.789l2.391 13.485 2.404-13.485zm-26.343 10.55c.402 0 .686-.356.686-.96v-6.25c0-.605-.284-.96-.686-.96h-.971v8.17h.97zm-4.659-10.55h5.79c2.58 0 2.989 2.084 2.989 3.428v5.807c0 1.35-.408 3.434-2.99 3.434h-2.107v6.523H79.33V16.628zm-11.194 0h8.53V35.82h-3.44V19.014H71.57V35.82h-3.433V16.628zm-7.27 12.467v3.611c0 .498.361.634.575.634.337 0 .574-.302.574-.634v-4.463c0-.598-.1-1.261-1.474-1.261h-1.498v-2.107h1.551c1.054 0 1.42-.255 1.42-1.421v-3.818c0-.332-.236-.628-.573-.628-.214 0-.575.136-.575.628v3.125h-3.694V20.05c0-1.344.16-3.428 2.741-3.428h3.06c2.582 0 2.736 2.084 2.736 3.428v3.072c0 2.078-1.397 2.652-2.504 2.6v.194c2.474-.059 2.504 1.918 2.504 2.605v3.86c0 1.35-.16 3.433-2.735 3.433h-3.06c-2.576 0-2.742-2.084-2.742-3.433v-3.286h3.694zm-9.364-.491l-.634-9.596h-.201l-.64 9.596h1.474zm-3.63-11.976h5.796l1.924 19.192h-3.611l-.337-5.103h-1.74l-.35 5.103h-3.6l1.919-19.192zm-9.5 0h7.032v2.386h-3.35V35.82h-3.688V16.628h.005zm57.45 0c2.581 0 2.747 2.084 2.747 3.428v12.33c0 1.35-.16 3.434-2.747 3.434h-3.048c-2.581 0-2.735-2.084-2.735-3.433V20.056c0-1.344.154-3.428 2.735-3.428h3.048zM94.307 33.44c.444 0 .81-.337.81-.763V19.67c-.047-.373-.396-.675-.822-.675-.426 0-.764.296-.811.675v13.006c0 .42.361.763.817.763" fill="#fff"/></g></svg>