<svg width="46" height="58" fill="none" xmlns="http://www.w3.org/2000/svg"><path d="M45.98 53.861c0 .939-.046 1.877.015 2.81.045.665-.207.857-.812.761a1.372 1.372 0 00-.454 0c-.61.096-.843-.106-.812-.761.055-1.236.02-2.477.015-3.718 0-.509.192-1.054-.742-1.044-.892.01-.665.53-.685 1-.03.902.06 1.81-.101 2.713-.248 1.407-1.836 2.36-3.158 1.846-.65-.258-.186-.843-.297-1.261-.091-.358.116-.45.459-.45.746.01.973-.458.968-1.129 0-1.271.035-2.537 0-3.808-.01-.51.126-.676.65-.666 1.453.035 2.906.03 4.358 0 .5-.01.606.167.59.626-.03 1.029-.01 2.052-.01 3.081m-.095-30.871c0 7.318-.01 14.64.015 21.96 0 .69-.151.907-.883.907-14.687-.025-29.374-.02-44.061 0-.707 0-.908-.171-.908-.893.02-14.702.02-29.4 0-44.096C.032.202.178 0 .879 0a16245 16245 0 0044.152 0c.681 0 .858.177.853.852-.025 7.38-.015 14.758-.015 22.142M36.25 34.191c-7.948 0-15.766.005-23.579-.01-.913 0-1.508-.62-1.599-1.533-.03-.298-.02-.606-.02-.908V8.14c0-.806-.106-1.568-.686-2.188-.726-.777-1.805-1.02-2.834-.636-1.11.409-1.67 1.291-1.67 2.739.01 8.685.02 17.365.05 26.05.01 3.017 2.225 5.165 5.256 5.17h31.17c.283 0 .565-.03.898-.05-.136-.373-.232-.656-.343-.933-2.411-6.154-4.812-12.317-7.253-18.46-.454-1.145-.388-2.124.277-3.163 1.584-2.466 3.107-4.973 4.64-7.47.853-1.386.566-2.915-.665-3.661-1.317-.802-2.89-.373-3.748 1.034-1.523 2.502-2.915 5.094-4.594 7.49-1.811 2.582-1.972 5.003-.58 7.863 1.921 3.954 3.49 8.08 5.27 12.271M14.522 16.982c0 2.905-.015 5.805 0 8.71.025 3.92 2.87 6.784 6.739 6.83 3.913.04 6.89-2.815 6.91-6.749.035-5.956.015-11.913.005-17.87 0-1.71-1.01-2.763-2.563-2.769-1.588-.005-2.537 1.004-2.547 2.754-.015 2.149 0 4.297 0 6.441 0 3.662.005 7.319 0 10.98 0 1.377-.802 2.159-1.982 1.987-.933-.136-1.447-.857-1.447-2.083V7.888c0-1.392-.626-2.305-1.77-2.638-1.73-.504-3.31.596-3.33 2.396-.03 3.112-.01 6.23-.01 9.346M30.43 53.856c-.035 2.366-1.66 3.934-4.045 3.92-2.315-.016-4.035-1.746-3.98-4.01.056-2.33 1.756-3.965 4.081-3.92 2.4.046 3.98 1.65 3.944 4.01zm-5.846-.025c.016 1.24.813 2.144 1.877 2.129 1.054-.016 1.856-.959 1.836-2.174-.015-1.23-.838-2.154-1.882-2.129-1.094.03-1.85.923-1.83 2.174zm8.943.489c.867-1.336 1.644-2.542 2.43-3.737.228-.348 1.862-.615 2.144-.363.187.166.091.398.091.595.005 1.992-.015 3.99.015 5.982.005.514-.14.711-.65.64a2.24 2.24 0 00-.636 0c-.54.076-.746-.1-.716-.685a18.74 18.74 0 00-.136-3.334c-.757 1.16-1.518 2.31-2.26 3.48-.202.317-.378.54-.827.55-1.528.03-1.523.055-1.523-1.488 0-1.69.015-3.385-.01-5.074-.005-.5.04-.752.66-.737 1.332.03 1.332-.015 1.332 1.347v2.446c0 .056.025.111.08.373m-26.438-.449c0 .969-.025 1.937.01 2.906.015.489-.09.746-.636.665a2.24 2.24 0 00-.635 0c-.62.096-.827-.126-.802-.771.05-1.357-.02-2.724.03-4.08.026-.656-.307-.636-.766-.651-.47-.015-.701.055-.691.62.015 1.054.12 2.118-.091 3.162-.272 1.347-1.902 2.26-3.157 1.74-.63-.262-.182-.847-.288-1.27-.09-.374.141-.44.474-.434.691.015.958-.399.958-1.04 0-1.3.03-2.602 0-3.898-.01-.51.132-.676.656-.66 1.453.035 2.905.035 4.358 0 .51-.01.6.176.59.63-.03 1.029-.01 2.058-.01 3.081z" fill="#fff"/><path d="M22.3 50.164c-.873 1.115-1.61 2.099-2.396 3.047-.313.378-.288.63.005.998.802 1.01 1.569 2.053 2.512 3.299-1.1-.298-2.119.419-2.87-.474-.61-.727-1.095-1.569-1.846-2.335 0 .696-.03 1.392.01 2.083.03.499-.111.741-.64.655a1.373 1.373 0 00-.454 0c-.762.126-1.03-.11-1-.948.076-1.871.046-3.752.011-5.624-.01-.54.096-.807.686-.7.176.03.368.03.545 0 .645-.102.938.09.857.811-.07.62-.015 1.261-.015 2.038.706-.6 1.105-1.276 1.493-1.922.444-.741.973-1.069 1.83-.933.354.056.722.01 1.272.01m-7.298-.005c-.858 1.907-1.68 3.733-2.497 5.564-.528 1.186-1.47 1.741-2.825 1.664-.095-.111-.055-.227.016-.323.882-1.12.71-2.179-.02-3.329-.702-1.104-1.231-2.32-1.887-3.576.585 0 1.064.046 1.533-.01.666-.075 1.04.152 1.271.807.242.696.62 1.347.979 2.093.494-.7.67-1.442.903-2.133.212-.625.53-.842 1.16-.767.413.05.837.01 1.367.01zm21.96-1.543c-.722 1.291-2.709 1.614-3.813.615-.177-.161-.58-.403-.358-.605.262-.232.736-.585 1.089-.287.706.595 1.26.56 1.962-.02.297-.248.736.176 1.115.297" fill="#fff"/></svg>