<?xml version="1.0" encoding="utf-8"?><svg viewBox="0 0 67 67" xmlns="http://www.w3.org/2000/svg" xmlns:xlink="http://www.w3.org/1999/xlink"><style>:root>svg{display:none}:root>svg:target{display:block}</style><svg fill="none" viewBox="0 0 40 40" id="icon-done" xmlns="http://www.w3.org/2000/svg"><rect width="40" height="40" rx="10" fill="#97C123"/><path d="M27.998 7l8 7.999-18.999 18.998L4 20.998 12 13l4.999 5 11-11z" fill="#fff"/></svg><svg fill="none" viewBox="0 0 40 40" id="icon-error" xmlns="http://www.w3.org/2000/svg"><rect width="40" height="40" rx="10" fill="#FF6029"/><path d="M4 12l8-8 7.999 8 8-8 7.999 8-8 7.999 8 8-8 7.999-8-8-7.999 8-7.999-8 8-8L4 12z" fill="#fff"/></svg><svg fill="none" viewBox="0 0 67 67" id="icon-tg" xmlns="http://www.w3.org/2000/svg"><g clip-path="url(#cclip0_210_7621)"><path d="M62.642 12.903l-8.847 41.719c-.67 2.945-2.406 3.676-4.88 2.289l-13.48-9.933-6.505 6.26c-.717.72-1.318 1.32-2.708 1.32l.972-13.727 24.98-22.573c1.088-.966-.238-1.508-1.69-.536l-30.88 19.446-13.298-4.162c-2.889-.902-2.942-2.892.603-4.28L58.913 8.691c2.409-.902 4.514.533 3.73 4.212z" fill="#0A7BC0"/></g><defs><clipPath id="cclip0_210_7621"><path fill="#fff" d="M0 0h67v67H0z"/></clipPath></defs></svg><svg fill="none" viewBox="0 0 64 64" id="icon-vk" xmlns="http://www.w3.org/2000/svg"><g clip-path="url(#dclip0_210_7810)"><g clip-path="url(#dclip1_210_7810)"><path fill-rule="evenodd" clip-rule="evenodd" d="M62.533 15.861c.443-1.456 0-2.528-2.12-2.528h-7c-1.781 0-2.602.926-3.048 1.947 0 0-3.56 8.523-8.602 14.059-1.632 1.605-2.374 2.114-3.264 2.114-.446 0-1.115-.51-1.115-1.968V15.861c0-1.75-.49-2.528-1.973-2.528H24.403c-1.112 0-1.782.81-1.782 1.582 0 1.656 2.523 2.04 2.782 6.7v10.129c0 2.221-.408 2.624-1.299 2.624-2.373 0-8.147-8.563-11.573-18.36-.664-1.907-1.336-2.675-3.126-2.675H2.4c-2 0-2.4.926-2.4 1.947 0 1.819 2.373 10.853 11.053 22.803 5.787 8.16 13.934 12.584 21.355 12.584 4.45 0 5-.982 5-2.675v-6.168c0-1.965.421-2.357 1.832-2.357 1.04 0 2.819.512 6.973 4.445 4.747 4.664 5.528 6.755 8.2 6.755h7c2 0 3.003-.982 2.427-2.923-.635-1.93-2.901-4.733-5.907-8.059-1.632-1.893-4.08-3.933-4.824-4.954-1.037-1.31-.741-1.894 0-3.06 0 0 8.534-11.802 9.422-15.81h.002z" fill="#0A7BC0"/></g></g><defs><clipPath id="dclip0_210_7810"><path fill="#fff" d="M0 0h64v64H0z"/></clipPath><clipPath id="dclip1_210_7810"><path fill="#fff" d="M0 0h64v64H0z"/></clipPath></defs></svg></svg>